<svg width="25" height="25" viewBox="0 0 25 25" fill="none" xmlns="http://www.w3.org/2000/svg">
<path d="M24.2942 0.72317C23.669 0.0841578 22.7436 -0.152189 21.8807 0.0979134L1.76 5.91155C0.849624 6.16415 0.204359 6.8857 0.0305377 7.80107C-0.147035 8.73396 0.473219 9.91944 1.28355 10.4146L7.57488 14.2562C8.22015 14.6514 9.05299 14.5526 9.58696 14.0174L16.7912 6.81317C17.1538 6.43676 17.7541 6.43676 18.1167 6.81317C18.4794 7.17457 18.4794 7.76356 18.1167 8.13871L10.9 15.3429C10.3648 15.8781 10.2647 16.7085 10.6586 17.355L14.5027 23.6701C14.9529 24.4191 15.7282 24.8456 16.5786 24.8456C16.6786 24.8456 16.7912 24.8456 16.8912 24.8318C17.8666 24.708 18.6419 24.044 18.9295 23.1061L24.8945 3.13666C25.1571 2.28631 24.9195 1.36093 24.2942 0.72317Z" fill="white"/>
<path opacity="0.4" d="M9.31831 21.4365C9.68346 21.8029 9.68346 22.3969 9.31831 22.7633L7.61011 24.4703C7.42753 24.6541 7.18743 24.7454 6.94733 24.7454C6.70724 24.7454 6.46714 24.6541 6.28456 24.4703C5.91816 24.1039 5.91816 23.5111 6.28456 23.1447L7.99151 21.4365C8.35791 21.0714 8.95191 21.0714 9.31831 21.4365ZM8.33828 16.6996C8.70343 17.066 8.70343 17.66 8.33828 18.0264L6.63008 19.7333C6.4475 19.9171 6.2074 20.0084 5.96731 20.0084C5.72721 20.0084 5.48711 19.9171 5.30454 19.7333C4.93813 19.3669 4.93813 18.7742 5.30454 18.4078L7.01148 16.6996C7.37788 16.3344 7.97188 16.3344 8.33828 16.6996ZM3.63485 15.2085C4 15.5749 4 16.1688 3.63485 16.5352L1.92665 18.2422C1.74407 18.426 1.50398 18.5173 1.26388 18.5173C1.02378 18.5173 0.783681 18.426 0.601106 18.2422C0.234706 17.8758 0.234706 17.2831 0.601106 16.9167L2.30806 15.2085C2.67446 14.8433 3.26845 14.8433 3.63485 15.2085Z" fill="white"/>
</svg>
